<?xml version="1.0" encoding="utf-8"?>
<!-- Generator: Adobe Illustrator 28.3.0, SVG Export Plug-In . SVG Version: 6.00 Build 0)  -->
<svg version="1.1" id="Layer_1" xmlns="http://www.w3.org/2000/svg" xmlns:xlink="http://www.w3.org/1999/xlink" x="0px" y="0px"
	 viewBox="0 0 180 120" style="enable-background:new 0 0 180 120;" xml:space="preserve">
<style type="text/css">
	.st0{fill:none;stroke:#000000;stroke-width:0.5;stroke-miterlimit:10;}
</style>
<g>
	<g>
		<path d="M43.62,59.4c0-12.85-0.02-25.69,0.01-38.54c0.01-6.45,2.65-11.62,8.16-15.29c2.43-1.62,5.2-2.51,8.13-2.53
			c7.88-0.08,15.76-0.02,23.65-0.02c6.26,0,12.52-0.05,18.78,0.02c1.56,0.02,3.14,0.33,4.66,0.68c0.74,0.17,1.39,0.74,2.09,1.09
			c0.76,0.38,1.62,0.63,2.3,1.11c1.08,0.77,2.08,1.68,3.07,2.56c5.73,5.09,11.49,10.15,17.14,15.32c1.11,1.02,1.94,2.41,2.66,3.75
			c1.72,3.2,2.09,6.66,2.08,10.24c-0.04,19.64-0.06,39.29,0.04,58.93c0.02,3.3-0.7,6.29-2.39,9.1c-2.74,4.56-6.45,7.89-12.01,8.82
			c-1.02,0.17-2.06,0.33-3.1,0.33c-19.09,0.02-38.17,0.06-57.26-0.02c-4.95-0.02-9.55-1.42-13.07-5.03
			c-3.13-3.2-4.93-7.02-4.92-11.53C43.63,85.4,43.63,72.4,43.62,59.4C43.63,59.4,43.62,59.4,43.62,59.4z M53.75,8.45
			c-2.2,0.42-2.23,0.2-2.58,2.2c-0.17,1-0.7,1.94-1.13,2.88c-0.39,0.86-1.11,1.65-1.26,2.54c-0.31,1.88-0.48,3.8-0.48,5.7
			c-0.03,20.28-0.03,40.56-0.01,60.84c0.01,5.51-0.1,11.04,0.26,16.54c0.42,6.33,6.11,11.28,12.64,11.3
			c19.08,0.04,38.17,0.08,57.25-0.01c7.67-0.04,13.14-5.21,13.13-13.03c-0.03-16.67,0.01-33.35-0.02-50.02
			c-0.01-3.83-0.21-7.65-0.27-11.48c-0.03-1.72-1.63-2.49-2.29-3.81c-0.06-0.11-0.34-0.15-0.53-0.16c-1.34-0.11-2.69-0.25-4.04-0.29
			c-3.51-0.1-7.03-0.02-10.53-0.25c-6.07-0.39-10.2-4.81-10.21-10.71c-0.01-4.09-0.04-8.19,0-12.28c0.01-0.97-0.33-1.2-1.27-1.18
			c-2.78,0.06-5.55,0.04-8.33,0.03C83.65,7.25,73.22,7.25,62.79,7.2c-3.86-0.02-7.58,0.31-10.64,3.02c-0.06-0.1-0.12-0.2-0.19-0.3
			C52.56,9.43,53.15,8.94,53.75,8.45z M128.18,27.09c0.06-0.08,0.12-0.15,0.18-0.23c-6.38-5.76-12.76-11.51-19.15-17.27
			c-0.11,0.08-0.22,0.16-0.33,0.24c-0.18,3.25-0.39,6.5-0.51,9.76c-0.03,0.92,0.07,1.9,0.38,2.76c1.13,3.17,3.14,4.52,6.95,4.69
			C119.85,27.23,124.02,27.09,128.18,27.09z M54.91,4.32c0.05,0.13,0.1,0.25,0.15,0.38c0.95-0.31,1.9-0.62,2.86-0.92
			c-0.03-0.09-0.06-0.18-0.08-0.26C56.85,3.78,55.88,4.05,54.91,4.32z"/>
		<path d="M89.76,92.45c-7.88,0-15.76,0-23.64,0c-1.82,0-2.96-0.9-3.02-2.39c-0.05-1.42,1.42-2.95,2.99-3.01
			c1.27-0.05,2.55,0.01,3.82,0.02c13.25,0.05,26.49,0.09,39.74,0.14c1.58,0.01,3.17-0.1,4.73,0.07c1.92,0.21,2.98,2.11,2.24,3.74
			c-0.53,1.16-1.58,1.43-2.76,1.43c-6.68,0-13.36,0-20.05,0C92.46,92.44,91.11,92.44,89.76,92.45
			C89.76,92.45,89.76,92.45,89.76,92.45z"/>
		<path d="M90.12,78.27c-6.41,0-12.82-0.01-19.23,0.01c-1.27,0-2.54,0.11-3.82,0.15c-0.54,0.02-1.09,0.03-1.62-0.04
			c-1.57-0.22-2.46-1.17-2.4-2.52c0.04-1.08,1.27-2.22,2.57-2.36c0.42-0.04,0.85-0.02,1.27-0.02c15.06,0,30.12,0.01,45.18,0.01
			c0.66,0,1.31-0.06,1.97-0.05c1.52,0.02,2.62,1.1,2.62,2.55c0,1.39-0.91,2.24-2.56,2.24c-7.99,0.02-15.99,0.01-23.98,0.01
			C90.12,78.26,90.12,78.26,90.12,78.27z"/>
		<path d="M89.86,50.97c-7.68,0-15.37-0.01-23.05,0.01c-1.09,0-2.06-0.15-2.81-1c-1.12-1.26-0.85-2.83,0.7-3.53
			c0.57-0.26,1.26-0.41,1.89-0.4c7.49,0.03,14.98,0.12,22.46,0.16c7.07,0.04,14.13,0.04,21.2,0.04c0.96,0,1.93-0.08,2.88-0.19
			c2.55-0.28,3.84,1.23,3,3.56c-0.44,1.23-1.57,1.35-2.65,1.35c-4.13-0.03-8.26-0.15-12.39-0.18c-3.75-0.03-7.49-0.01-11.24-0.01
			C89.86,50.83,89.86,50.9,89.86,50.97z"/>
		<path d="M90.71,64.12c-7.57,0-15.14,0-22.7,0c-0.69,0-1.39,0.09-2.08,0.1c-1.59,0.03-2.58-0.79-2.64-2.19
			c-0.06-1.3,1.09-2.45,2.54-2.49c1.2-0.03,2.39,0,3.59,0c11.47,0,22.93-0.01,34.4,0.01c2.89,0.01,5.79,0.12,8.68,0.18
			c0.76,0.02,1.55-0.08,2.27,0.09c1.23,0.3,2.05,1.52,1.86,2.52c-0.22,1.15-1.52,2.07-2.76,2.05c-7.72-0.14-15.44-0.26-23.16-0.39
			C90.71,64.04,90.71,64.08,90.71,64.12z"/>
	</g>
	<g>
		<g>
			<path d="M61.06,6.61c1.93,0,1.93-3,0-3C59.13,3.61,59.13,6.61,61.06,6.61L61.06,6.61z"/>
		</g>
	</g>
	<g>
		<g>
			<path d="M52.61,9.27c0.97,0,0.97-1.5,0-1.5C51.64,7.77,51.64,9.27,52.61,9.27L52.61,9.27z"/>
		</g>
	</g>
	<g>
		<g>
			<path d="M51.74,10.13c0.97,0,0.97-1.5,0-1.5C50.78,8.63,50.78,10.13,51.74,10.13L51.74,10.13z"/>
		</g>
	</g>
	<g>
		<g>
			<path d="M50.88,10.98c0.97,0,0.97-1.5,0-1.5C49.91,9.48,49.91,10.98,50.88,10.98L50.88,10.98z"/>
		</g>
	</g>
	<g>
		<g>
			<path d="M50.23,11.62c0.97,0,0.97-1.5,0-1.5C49.26,10.12,49.26,11.62,50.23,11.62L50.23,11.62z"/>
		</g>
	</g>
	<g>
		<g>
			<path d="M55.64,5.65c0.97,0,0.97-1.5,0-1.5C54.68,4.15,54.68,5.65,55.64,5.65L55.64,5.65z"/>
		</g>
	</g>
	<g>
		<g>
			<path d="M56.73,5.43c0.97,0,0.97-1.5,0-1.5C55.76,3.93,55.76,5.43,56.73,5.43L56.73,5.43z"/>
		</g>
	</g>
	<g>
		<g>
			<path d="M57.38,5.43c0.97,0,0.97-1.5,0-1.5C56.41,3.93,56.41,5.43,57.38,5.43L57.38,5.43z"/>
		</g>
	</g>
	<g>
		<g>
			<path d="M57.38,5.01c0.97,0,0.97-1.5,0-1.5C56.41,3.51,56.41,5.01,57.38,5.01L57.38,5.01z"/>
		</g>
	</g>
	<line class="st0" x1="99.89" y1="5.66" x2="110.09" y2="5.66"/>
</g>
</svg>
